HIERARCHY
ROOT Hips
{
	OFFSET 0.000000 0.000000 0.000000
	CHANNELS 6 Xposition Yposition Zposition Xrotation Yrotation Zrotation
	JOINT LeftUpLeg_virtual
	{
		OFFSET 0.000000 0.000000 0.000000
		CHANNELS 3 Xrotation Yrotation Zrotation
		JOINT LeftUpLeg
		{
			OFFSET 13.026900 -6.336304 -1.092800
			CHANNELS 3 Xrotation Yrotation Zrotation
			JOINT LeftLeg
			{
				OFFSET 0.524474 -46.096886 9.782700
				CHANNELS 3 Xrotation Yrotation Zrotation
				JOINT LeftFoot
				{
					OFFSET -0.524474 -53.427422 -12.948200
					CHANNELS 3 Xrotation Yrotation Zrotation
					JOINT LeftToeBase
					{
						OFFSET 0.192200 -14.009700 16.364100
						CHANNELS 3 Xrotation Yrotation Zrotation
						JOINT LeftToe_End
						{
							OFFSET -1.784700 -0.561700 9.474800
							CHANNELS 3 Xrotation Yrotation Zrotation
							End Site
							{
								OFFSET 0 0 0
							}
						}
					}
				}
			}
		}
	}
	JOINT RightUpLeg_virtual
	{
		OFFSET 0.000000 0.000000 0.000000
		CHANNELS 3 Xrotation Yrotation Zrotation
		JOINT RightUpLeg
		{
			OFFSET -12.883000 -6.336304 -1.092800
			CHANNELS 3 Xrotation Yrotation Zrotation
			JOINT RightLeg
			{
				OFFSET -0.524587 -46.096825 9.782800
				CHANNELS 3 Xrotation Yrotation Zrotation
				JOINT RightFoot
				{
					OFFSET 0.524587 -53.427383 -12.948300
					CHANNELS 3 Xrotation Yrotation Zrotation
					JOINT RightToeBase
					{
						OFFSET -0.192200 -14.009700 16.364100
						CHANNELS 3 Xrotation Yrotation Zrotation
						JOINT RightToe_End
						{
							OFFSET 1.784700 -0.561700 9.474800
							CHANNELS 3 Xrotation Yrotation Zrotation
							End Site
							{
								OFFSET 0 0 0
							}
						}
					}
				}
			}
		}
	}
	JOINT Spine_virtual
	{
		OFFSET 0.000000 0.000000 0.000000
		CHANNELS 3 Xrotation Yrotation Zrotation
		JOINT Spine
		{
			OFFSET 0.072000 7.257294 -0.789700
			CHANNELS 3 Xrotation Yrotation Zrotation
			JOINT Spine1
			{
				OFFSET 0.000000 12.508769 -0.658067
				CHANNELS 3 Xrotation Yrotation Zrotation
				JOINT Spine1_split
				{
					OFFSET 0.000000 12.508769 -0.658067
					CHANNELS 3 Xrotation Yrotation Zrotation
					JOINT Spine2
					{
						OFFSET 0.000000 12.508769 -0.658067
						CHANNELS 3 Xrotation Yrotation Zrotation
						JOINT Neck_virtual
						{
							OFFSET 0.000000 0.000000 0.000000
							CHANNELS 3 Xrotation Yrotation Zrotation
							JOINT Neck
							{
								OFFSET 0.000000 14.033295 7.520400
								CHANNELS 3 Xrotation Yrotation Zrotation
								JOINT Head
								{
									OFFSET 0.000000 8.198502 5.703100
									CHANNELS 3 Xrotation Yrotation Zrotation
									JOINT HeadTop_End
									{
										OFFSET 0.000000 17.760803 13.332701
										CHANNELS 3 Xrotation Yrotation Zrotation
										End Site
										{
											OFFSET 0 0 0
										}
									}
								}
							}
						}
						JOINT LeftShoulder_virtual
						{
							OFFSET 0.000000 0.000000 0.000000
							CHANNELS 3 Xrotation Yrotation Zrotation
							JOINT LeftShoulder
							{
								OFFSET 6.292450 5.785301 -0.669000
								CHANNELS 3 Xrotation Yrotation Zrotation
								JOINT LeftShoulder_split
								{
									OFFSET 6.292450 5.785301 -0.669000
									CHANNELS 3 Xrotation Yrotation Zrotation
									JOINT LeftArm
									{
										OFFSET 13.907140 -6.093903 1.965100
										CHANNELS 3 Xrotation Yrotation Zrotation
										JOINT LeftForeArm
										{
											OFFSET 34.140198 0.000000 0.000000
											CHANNELS 3 Xrotation Yrotation Zrotation
											JOINT LeftHand
											{
												OFFSET 40.960209 0.000000 0.000000
												CHANNELS 3 Xrotation Yrotation Zrotation
												End Site
												{
													OFFSET 0 0 0
												}
											}
										}
									}
								}
							}
						}
						JOINT RightShoulder_virtual
						{
							OFFSET 0.000000 0.000000 0.000000
							CHANNELS 3 Xrotation Yrotation Zrotation
							JOINT RightShoulder
							{
								OFFSET -6.292450 5.785301 -0.669000
								CHANNELS 3 Xrotation Yrotation Zrotation
								JOINT RightShoulder_split
								{
									OFFSET -6.292450 5.785301 -0.669000
									CHANNELS 3 Xrotation Yrotation Zrotation
									JOINT RightArm
									{
										OFFSET -13.907140 -6.093903 1.965100
										CHANNELS 3 Xrotation Yrotation Zrotation
										JOINT RightForeArm
										{
											OFFSET -34.140198 0.000000 0.000000
											CHANNELS 3 Xrotation Yrotation Zrotation
											JOINT RightHand
											{
												OFFSET -40.960209 0.000000 0.000000
												CHANNELS 3 Xrotation Yrotation Zrotation
												End Site
												{
													OFFSET 0 0 0
												}
											}
										}
									}
								}
							}
						}
					}
				}
			}
		}
	}
}
MOTION
Frames: 4
Frame Time: 0.03333333
-3.271244 105.068428 -2.490211 0.000000 0.000000 0.000000 -0.142957 -46.327708 2.886014 -34.572478 5.290497 15.939563 21.043738 -5.879848 4.626364 8.643028 -4.635585 -17.134344 -2.089248 0.802464 0.484461 0.000000 0.000000 0.000000 -1.646898 -45.432014 2.802816 -11.886989 -9.311617 -18.956953 30.746677 -6.719588 -5.753794 -11.837828 -11.232706 28.476952 -2.185754 -0.110378 0.641562 0.000000 0.000000 0.000000 -1.115749 -46.097213 2.652275 6.555450 2.714221 0.379221 0.449405 2.425171 -1.595283 1.096378 -1.330186 0.920412 0.000000 0.000000 0.000000 -0.603466 1.991921 -1.417235 -17.205021 -2.196470 19.501792 -1.237625 17.674124 -17.099128 0.000000 0.000000 0.000000 -0.411995 1.829844 -1.308907 -7.371195 -7.635970 -13.845322 -5.485752 -2.507831 -2.895693 4.633089 -4.403168 -30.326173 43.988993 -38.908914 17.425541 0.000000 0.000000 0.000000 -0.803521 1.664107 -1.218833 -1.649862 14.905136 -18.891535 -6.136499 2.932060 -0.254803 -73.166742 10.772752 18.310091 -75.880622 34.148186 55.665888 0.000000 0.000000 0.000000 
-2.255475 104.568642 -2.724857 0.000000 0.000000 0.000000 -0.582287 -48.391982 3.040914 -34.432247 5.707093 16.405363 22.485968 -5.076421 3.770265 7.536474 -4.097537 -16.687428 -1.560909 0.784257 0.285851 0.000000 0.000000 0.000000 -1.840377 -47.373267 3.033698 -14.659529 -8.482140 -20.088705 32.573705 -5.515004 -5.861692 -11.501264 -10.963762 28.332707 -1.639743 -0.128083 0.567157 0.000000 0.000000 0.000000 -1.707123 -48.200543 2.590706 7.099171 2.889294 0.641448 1.153317 2.435747 -1.338381 0.981470 -1.289511 1.045859 0.000000 0.000000 0.000000 -0.042269 2.011124 -1.188847 -17.518081 1.442868 19.507261 0.553596 20.848389 -16.657983 0.000000 0.000000 0.000000 0.274006 1.806025 -1.164328 -7.009340 -7.227478 -13.200808 -5.715043 -2.762682 -3.646473 4.094943 -3.213695 -30.699638 44.224389 -40.080834 18.205089 0.000000 0.000000 0.000000 -0.232135 1.680046 -0.977247 -2.558352 15.252253 -13.015541 -5.314477 3.441794 -0.111516 -65.705088 12.376666 18.990771 -78.736549 41.037108 60.590499 0.000000 0.000000 0.000000 
-1.350771 104.004814 -2.969498 0.000000 0.000000 0.000000 -0.854695 -50.556008 3.253036 -34.475516 5.997723 16.943602 24.188396 -4.376135 2.988599 6.346861 -3.586435 -16.364944 -1.116895 0.783287 0.105915 0.000000 0.000000 0.000000 -1.948841 -49.375977 3.300363 -17.539929 -7.559695 -21.112316 34.476087 -4.216604 -5.970041 -11.145138 -10.414036 28.352073 -1.196142 -0.110881 0.429123 0.000000 0.000000 0.000000 -2.009057 -50.315210 2.673007 7.604812 3.033250 0.844809 1.905881 2.456256 -1.180696 1.030611 -1.384489 1.071065 0.000000 0.000000 0.000000 0.566226 2.042931 -1.063544 -18.169743 4.839197 19.168595 1.886067 23.116886 -15.913301 0.000000 0.000000 0.000000 1.024228 1.796075 -1.093939 -6.692496 -6.972812 -12.494958 -6.025135 -2.979248 -4.532489 3.433260 -3.005865 -30.858067 43.353331 -40.190302 18.005299 0.000000 0.000000 0.000000 0.424951 1.699409 -0.831131 -3.551076 15.620007 -7.100075 -4.345518 4.224082 0.225635 -57.328961 13.454400 19.145895 -81.514326 48.095323 64.256644 0.000000 0.000000 0.000000 
-0.556797 103.388123 -3.121044 0.000000 0.000000 0.000000 -0.944015 -52.626864 3.494112 -34.708651 6.088068 17.491146 26.076769 -3.854625 2.328991 5.166528 -3.236808 -16.210387 -0.857582 0.786254 -0.025452 0.000000 0.000000 0.000000 -1.918844 -51.271898 3.615951 -20.378377 -6.590454 -21.904236 36.290612 -2.924515 -6.067062 -10.946457 -9.721342 28.325153 -0.750761 -0.061731 0.274980 0.000000 0.000000 0.000000 -1.981239 -52.303246 2.909185 8.039264 3.107150 0.979168 2.645626 2.475213 -1.107592 1.052556 -1.523049 1.059783 0.000000 0.000000 0.000000 1.182588 2.065521 -1.011786 -19.074953 7.993848 18.557897 2.887406 24.636632 -15.014595 0.000000 0.000000 0.000000 1.766709 1.780470 -1.074092 -6.430362 -6.919847 -11.738089 -6.390737 -3.093394 -5.420498 2.602962 -3.533174 -30.792296 41.489755 -39.406838 16.928221 0.000000 0.000000 0.000000 1.124146 1.720362 -0.760274 -4.529697 16.028162 -1.452846 -3.609713 4.598158 0.548652 -48.826707 14.172958 19.041985 -82.622278 54.935280 65.192380 0.000000 0.000000 0.000000 
